<svg xmlns="http://www.w3.org/2000/svg" xmlns:xlink="http://www.w3.org/1999/xlink" id="Layer_1" x="0px" y="0px" width="769.718px" height="207.141px" viewBox="0 0 769.718 207.141" xml:space="preserve"><path d="M0,85.707V0.002h39.35c4.185,0,8.048,0.861,11.589,2.593c3.543,1.732,6.579,3.985,9.113,6.76 c2.537,2.777,4.527,5.958,5.976,9.537c1.449,3.58,2.174,7.182,2.174,10.802c0,4.992-1.088,9.639-3.26,13.944 c-2.172,4.308-5.191,7.828-9.054,10.562l18.108,31.506H47.438L32.349,59.392h-8.812v26.315H0z M23.538,38.869h14.847 c1.448,0,2.795-0.802,4.044-2.414c1.249-1.609,1.873-3.863,1.873-6.76c0-2.974-0.726-5.25-2.174-6.819 c-1.448-1.569-2.897-2.353-4.346-2.353H23.538V38.869z"></path><polygon points="154.45,65.184 154.45,85.707 93.369,85.707 93.369,0.002 153.364,0.002 153.364,20.523 116.909,20.523  116.909,32.592 148.052,32.592 148.052,51.666 116.909,51.666 116.909,65.184 "></polygon><polygon points="240.646,7.483 210.105,7.483 210.105,85.705 201.657,85.705 201.657,7.483 171.116,7.483 171.116,0 240.646,0 "></polygon><polygon points="330.458,0 330.458,85.705 322.009,85.705 322.009,45.629 271.184,45.629 271.184,85.705 262.855,85.705 262.855,0  271.184,0 271.184,38.146 322.009,38.146 322.009,0 "></polygon><rect x="364.256" y="0.123" width="8.329" height="85.584"></rect><polygon points="411.205,15.692 411.205,85.705 402.875,85.705 402.875,0 409.396,0 466.128,71.341 466.128,0.12 474.457,0.12  474.457,85.705 467.216,85.705 "></polygon><polygon points="501.134,85.705 501.134,0.12 509.468,0.12 509.468,49.855 556.666,0 565.96,0 530.954,37.663 567.892,85.705  558.592,85.705 525.762,42.612 509.468,59.39 509.468,85.705 "></polygon><polygon fill="#00758D" points="61.081,185.895 61.081,206.417 0,206.417 0,120.713 59.995,120.713 59.995,141.233 23.54,141.233  23.54,153.298 54.683,153.298 54.683,172.377 23.54,172.377 23.54,185.895 "></polygon><path fill="#00758D" d="M85.355,206.417v-85.705h32.953c7.082,0,13.316,1.127,18.711,3.374c5.389,2.262,9.897,5.316,13.52,9.179 c3.621,3.863,6.354,8.39,8.207,13.582c1.85,5.189,2.777,10.718,2.777,16.596c0,6.52-1.025,12.416-3.079,17.685 c-2.051,5.271-4.971,9.777-8.75,13.52c-3.784,3.743-8.329,6.633-13.641,8.691c-5.312,2.052-11.226,3.079-17.746,3.079H85.355z  M137.622,163.443c0-3.301-0.447-6.313-1.329-9.052c-0.886-2.736-2.153-5.071-3.802-7.002c-1.652-1.931-3.681-3.439-6.096-4.532 c-2.414-1.081-5.112-1.623-8.088-1.623h-9.415v44.661h9.415c3.061,0,5.794-0.56,8.208-1.688c2.415-1.129,4.443-2.693,6.096-4.709 c1.648-2.015,2.897-4.382,3.743-7.12C137.201,169.641,137.622,166.662,137.622,163.443"></path><path fill="#00758D" d="M218.496,186.257c2.734,0,5.069-0.603,7-1.813c1.932-1.204,3.5-2.791,4.709-4.765 c1.206-1.972,2.094-4.244,2.654-6.819c0.563-2.573,0.846-5.271,0.846-8.088v-44.059h23.538v44.059 c0,5.953-0.764,11.522-2.292,16.719c-1.532,5.191-3.906,9.68-7.123,13.458c-3.217,3.784-7.266,6.76-12.13,8.934 c-4.872,2.172-10.605,3.258-17.202,3.258c-6.844,0-12.693-1.147-17.564-3.439c-4.869-2.294-8.871-5.373-12.01-9.236 c-3.137-3.863-5.432-8.347-6.88-13.459c-1.448-5.107-2.172-10.521-2.172-16.235v-44.059h23.538v44.059 c0,2.817,0.283,5.529,0.846,8.147c0.56,2.614,1.448,4.913,2.654,6.876c1.208,1.979,2.759,3.547,4.647,4.713 C213.445,185.672,215.762,186.257,218.496,186.257"></path><path fill="#00758D" d="M276.437,162.84c0-5.232,0.984-10.38,2.958-15.449c1.972-5.071,4.847-9.617,8.63-13.647 c3.784-4.019,8.365-7.279,13.761-9.772c5.391-2.491,11.545-3.745,18.469-3.745c8.288,0,15.47,1.711,21.547,5.135 c6.078,3.421,10.598,7.948,13.579,13.579l-17.986,12.79c-0.807-2.088-1.871-3.815-3.203-5.189c-1.329-1.365-2.795-2.453-4.4-3.255 c-1.612-0.807-3.283-1.369-5.01-1.689c-1.732-0.327-3.398-0.49-5.01-0.49c-3.384,0-6.295,0.669-8.752,1.997 c-2.455,1.329-4.471,3.056-6.039,5.191c-1.564,2.131-2.729,4.55-3.496,7.243c-0.771,2.697-1.151,5.37-1.151,8.022 c0,2.981,0.446,5.84,1.333,8.574c0.882,2.736,2.167,5.15,3.863,7.243c1.689,2.095,3.761,3.761,6.211,5.01 c2.455,1.249,5.214,1.87,8.274,1.87c1.605,0,3.258-0.181,4.949-0.542c1.684-0.363,3.319-0.966,4.888-1.812 c1.569-0.85,2.976-1.932,4.226-3.26c1.249-1.326,2.233-2.961,2.956-4.888l19.194,11.466c-1.29,3.14-3.242,5.958-5.856,8.447 c-2.618,2.496-5.592,4.59-8.932,6.281c-3.344,1.689-6.923,2.975-10.743,3.863c-3.826,0.882-7.544,1.326-11.171,1.326 c-6.354,0-12.167-1.268-17.442-3.802c-5.264-2.534-9.813-5.896-13.636-10.079c-3.82-4.189-6.783-8.934-8.873-14.25 C277.481,173.705,276.437,168.314,276.437,162.84"></path><path fill="#00758D" d="M396.544,120.711h21.488l29.688,85.704h-23.894l-5.191-16.78h-22.814l-5.071,16.78h-24.021L396.544,120.711z  M414.89,173.943l-7.607-26.555l-7.962,26.555H414.89z"></path><polygon fill="#00758D" points="524.923,141.231 500.3,141.231 500.3,206.415 476.76,206.415 476.76,141.231 452.019,141.231  452.019,120.711 524.923,120.711 "></polygon><rect x="545.807" y="120.713" fill="#00758D" width="23.54" height="85.705"></rect><path fill="#00758D" d="M632.482,207.141c-6.524,0-12.437-1.245-17.75-3.743c-5.305-2.494-9.857-5.772-13.634-9.834 c-3.791-4.066-6.724-8.714-8.818-13.946c-2.095-5.228-3.134-10.618-3.134-16.174c0-5.631,1.08-11.065,3.261-16.297 c2.167-5.228,5.209-9.836,9.112-13.819c3.896-3.98,8.524-7.161,13.879-9.537c5.35-2.373,11.208-3.561,17.56-3.561 c6.52,0,12.441,1.249,17.746,3.743c5.313,2.491,9.856,5.794,13.642,9.897c3.782,4.105,6.697,8.775,8.756,14.003 c2.045,5.232,3.078,10.584,3.078,16.055c0,5.636-1.093,11.044-3.265,16.236c-2.167,5.189-5.19,9.777-9.054,13.76 s-8.47,7.187-13.814,9.596C644.687,205.937,638.838,207.141,632.482,207.141 M613.041,163.683c0,2.897,0.408,5.697,1.215,8.39 c0.803,2.697,2.004,5.089,3.613,7.182c1.614,2.095,3.641,3.783,6.103,5.071c2.453,1.29,5.373,1.931,8.746,1.931 c3.382,0,6.32-0.664,8.818-1.993c2.489-1.328,4.521-3.061,6.089-5.191c1.569-2.131,2.734-4.563,3.5-7.302 c0.767-2.734,1.147-5.511,1.147-8.329c0-2.897-0.403-5.692-1.206-8.39c-0.803-2.693-2.035-5.069-3.682-7.123 c-1.65-2.052-3.699-3.7-6.156-4.949c-2.458-1.249-5.328-1.87-8.629-1.87c-3.382,0-6.302,0.646-8.755,1.931 c-2.452,1.29-4.488,2.999-6.089,5.13c-1.619,2.131-2.802,4.55-3.568,7.243C613.421,158.113,613.041,160.87,613.041,163.683"></path><polygon fill="#00758D" points="716.975,164.286 716.975,206.415 693.435,206.415 693.435,120.711 711.784,120.711 746.183,164.286  746.183,120.711 769.718,120.711 769.718,206.415 751.011,206.415 "></polygon><line fill="none" x1="-8.282" y1="-82.646" x2="783.718" y2="-82.646"></line></svg>